<svg width="14" height="14" viewBox="0 0 14 14" fill="none" xmlns="http://www.w3.org/2000/svg">
<g id="Icon_mail">
<path id="Vector" d="M6.68383 1.93233L7.1852 3.11504C7.40366 3.63042 7.28262 4.2365 6.88537 4.61333L5.94854 5.50233C5.84295 5.60267 5.78812 5.74821 5.81174 5.89171C5.90216 6.44033 6.10254 6.98137 6.41287 7.51512C6.72262 8.04771 7.09974 8.50096 7.54454 8.87458C7.66237 8.97346 7.82599 8.99912 7.97183 8.95042L9.0647 8.58583C9.56783 8.41812 10.1156 8.61092 10.4242 9.06417L11.1431 10.1203C11.5019 10.6473 11.4374 11.3742 10.9923 11.821L10.5152 12.2999C10.0403 12.7765 9.3622 12.9495 8.73483 12.7537C7.25374 12.2917 5.89224 10.9203 4.64974 8.63921C3.40549 6.35487 2.96654 4.41646 3.33258 2.82454C3.48658 2.15458 3.96345 1.62112 4.58616 1.42221L5.21412 1.22154C5.80329 1.034 6.43183 1.33792 6.68383 1.93233Z" fill="#808080"/>
</g>
</svg>
